<svg xmlns="http://www.w3.org/2000/svg" xmlns:xlink="http://www.w3.org/1999/xlink" width="77" height="90" viewBox="0 0 77 90">
  <defs>
    <filter id="Polygon_5" x="0" y="0" width="77" height="90" filterUnits="userSpaceOnUse">
      <feOffset dx="2" dy="5" input="SourceAlpha"/>
      <feGaussianBlur stdDeviation="3" result="blur"/>
      <feFlood flood-opacity="0.161"/>
      <feComposite operator="in" in2="blur"/>
      <feComposite in="SourceGraphic"/>
    </filter>
  </defs>
  <g transform="matrix(1, 0, 0, 1, 0, 0)" filter="url(#Polygon_5)">
    <g id="Polygon_5-2" data-name="Polygon 5" transform="translate(7 76) rotate(-90)" fill="#ddd">
      <path d="M 61.31026077270508 58.49999618530273 L 10.6897497177124 58.49999618530273 C 8.673439979553223 58.49999618530273 6.880489826202393 57.45027923583984 5.893589973449707 55.69200897216797 C 4.906700134277344 53.93373870849609 4.944509983062744 51.85644912719727 5.994729995727539 50.13524627685547 L 31.30499076843262 8.654547691345215 C 32.31182861328125 7.004447460174561 34.06697845458984 6.019307613372803 36 6.019307613372803 C 37.93302154541016 6.019307613372803 39.68817138671875 7.004447460174561 40.69501876831055 8.654547691345215 L 66.00527191162109 50.13524627685547 C 67.05548858642578 51.85644912719727 67.09329986572266 53.93373870849609 66.10640716552734 55.69200897216797 C 65.1195068359375 57.45028686523438 63.32656097412109 58.49999618530273 61.31026077270508 58.49999618530273 Z" stroke="none"/>
      <path d="M 36 6.519306182861328 C 34.24269866943359 6.519306182861328 32.64712142944336 7.414886474609375 31.7318115234375 8.91497802734375 L 6.421546936035156 50.39566802978516 C 5.466796875 51.96039581298828 5.432426452636719 53.84885787963867 6.329612731933594 55.44728851318359 C 7.226791381835938 57.04570770263672 8.856739044189453 57.99999618530273 10.68975067138672 57.99999618530273 L 61.31026077270508 57.99999618530273 C 63.14326095581055 57.99999618530273 64.77320861816406 57.04571914672852 65.67038726806641 55.44728851318359 C 66.56757354736328 53.84885787963867 66.533203125 51.96039581298828 65.57845306396484 50.39566802978516 L 40.2681999206543 8.914989471435547 C 39.35287857055664 7.414886474609375 37.75728988647461 6.519306182861328 36 6.519306182861328 M 36 5.519306182861328 C 37.97621154785156 5.519306182861328 39.95241928100586 6.477577209472656 41.12184143066406 8.394119262695312 L 66.43209075927734 49.87480926513672 C 68.87168121337891 53.87303924560547 65.99398803710938 58.99999618530273 61.31026077270508 58.99999618530273 L 10.68975067138672 58.99999618530273 C 6.006011962890625 58.99999618530273 3.128318786621094 53.87303924560547 5.567909240722656 49.87480926513672 L 30.87817001342773 8.394119262695312 C 32.04758453369141 6.477577209472656 34.0237922668457 5.519306182861328 36 5.519306182861328 Z" stroke="none" fill="#958f8f"/>
    </g>
  </g>
</svg>
